<svg xmlns="http://www.w3.org/2000/svg" width="256" height="96" viewBox="0 0 256 96" fill="none">
  <defs>
    <filter id="glow" x="-30%" y="-30%" width="160%" height="160%">
      <feGaussianBlur stdDeviation="1.6" result="blur"/>
      <feMerge><feMergeNode in="blur"/><feMergeNode in="SourceGraphic"/></feMerge>
    </filter>
  </defs>
  <g stroke-linecap="round" stroke-linejoin="round" stroke-width="1.7" filter="url(#glow)">
    <g transform="translate(8 8)" stroke="#1597b5">
      <path d="M22 8h-8a6 6 0 0 0-6 6v20a6 6 0 0 0 6 6h8"/>
      <circle cx="27" cy="24" r="4" fill="#1597b5"/>
    </g>
    <g transform="translate(56 8)" stroke="#8366c8">
      <circle cx="24" cy="24" r="4" fill="#8366c8"/>
      <path d="M8 24c6-14 26-14 32 0M8 24c6 14 26 14 32 0"/>
    </g>
    <g transform="translate(104 8)" stroke="#243044">
      <rect x="8" y="17" width="32" height="14" rx="7"/>
    </g>
    <g transform="translate(152 8)" stroke="#e3a12f">
      <circle cx="12" cy="24" r="4" fill="#e3a12f"/>
      <circle cx="36" cy="24" r="4" fill="#e3a12f"/>
      <path d="M16 23c8-10 12 10 20 0"/>
    </g>
    <g transform="translate(200 8)" stroke="#c94b4b">
      <path d="M24 7 38 13v11c0 10-6 16-14 19C16 40 10 34 10 24V13l14-6Z"/>
      <path d="m25 16-5 8h7l-5 9"/>
    </g>
    <g transform="translate(8 56)" stroke="#34956f">
      <path d="M10 24c0-9 7-16 16-16s16 7 16 16-7 16-16 16"/>
      <path d="m18 24 5 5 11-13"/>
    </g>
    <g transform="translate(56 56)" stroke="#8366c8">
      <path d="M15 31 31 15"/>
      <path d="M28 12h8v8"/>
      <path d="M11 34a7 7 0 0 0 10 0l4-4-10-10-4 4a7 7 0 0 0 0 10Z"/>
    </g>
    <g transform="translate(104 56)" stroke="#e3a12f">
      <rect x="10" y="12" width="28" height="22" rx="3"/>
      <rect x="14" y="8" width="20" height="8" rx="2"/>
      <path d="M16 22h16M16 28h10"/>
    </g>
  </g>
</svg>
